# xmcd
#
# Track frame offsets: 
#        150
#        11068
#        25698
#        40620
#        52243
#        66994
#        79499
#        92302
#        105912
#        120586
#        133617
#        148417
#        159280
#        173984
#        188712
#        203183
#        214591
#        226427
#        240336
#
# Disc length: 3363 seconds
#
# Revision: 3
# Processed by: cddbd v1.5.2PL0 Copyright (c) Steve Scherf et al.
# Submitted via: ExactAudioCopy v1.1
#
DISCID=fd0d2113
DTITLE=Benny Goodman - CD5_Clarinade
DYEAR=2002
DGENRE=Swing
TTITLE0=You're Dangerous
TTITLE1=This Is New
TTITLE2=Perfidia
TTITLE3=Lazy River
TTITLE4=Yours
TTITLE5=Solo Fighter
TTITLE6=Oh! Look At Me Now
TTITLE7=Amapola
TTITLE8=Smoke Gets In Your Eyes
TTITLE9=Clarinet A La Kng
TTITLE10=Not Nice
TTITLE11=The Darktown Strutter's Ball
TTITLE12=You're Easy To Dance With
TTITLE13=Six Flats Unfurnished
TTITLE14=Why Don't You Do Right?
TTITLE15=After You've Gone
TTITLE16=Mission to Moscow
TTITLE17=Love Walked In
TTITLE18=Clarinade
EXTD=YEAR: 2002
EXTT0=
EXTT1=
EXTT2=
EXTT3=
EXTT4=
EXTT5=
EXTT6=
EXTT7=
EXTT8=
EXTT9=
EXTT10=
EXTT11=
EXTT12=
EXTT13=
EXTT14=
EXTT15=
EXTT16=
EXTT17=
EXTT18=
PLAYORDER=
